<svg xmlns="http://www.w3.org/2000/svg" viewBox="0 0 32 32"><defs><style>.cls-2{fill:#68c7d3}.cls-3{fill:#30acc2}</style></defs><g id="Hand_Pills" data-name="Hand Pills"><path d="M28.88 17a2.12 2.12 0 0 0-1.5.62l-5.55 5.55a2.84 2.84 0 0 1-2 .83H15a2 2 0 0 1 1.76-2H20a2 2 0 0 0 2-2.18A2.08 2.08 0 0 0 19.89 18H15a13.55 13.55 0 0 0-12.94 9.56L1 31h10a2.84 2.84 0 0 1 2.71-2h7.11a2.84 2.84 0 0 0 2-.83l7.55-7.55A2.12 2.12 0 0 0 28.88 17z" style="fill:#d1e6e9"/><path class="cls-2" d="M10.5 13.89a2.81 2.81 0 0 1 .3-1.29 1.67 1.67 0 0 1 .12-.23A3 3 0 0 1 12 11.31a1.67 1.67 0 0 1 .23-.12 2.81 2.81 0 0 1 1.29-.3 3 3 0 0 1 3 3 2.81 2.81 0 0 1-.3 1.29 1.67 1.67 0 0 1-.12.23 2.91 2.91 0 0 1-1.1 1.06 1.67 1.67 0 0 1-.23.12 2.81 2.81 0 0 1-1.29.3 3 3 0 0 1-2.98-3z"/><path class="cls-3" d="M10.8 12.6a1.67 1.67 0 0 1 .12-.23A3 3 0 0 1 12 11.31a1.67 1.67 0 0 1 .23-.12l4 4a1.67 1.67 0 0 1-.12.23A2.91 2.91 0 0 1 15 16.47a1.67 1.67 0 0 1-.23.12z"/><path class="cls-2" d="M21.5 1.89a2.81 2.81 0 0 1 1.29.3 1.67 1.67 0 0 1 .23.12 3 3 0 0 1 1.06 1.06 1.67 1.67 0 0 1 .12.23 2.81 2.81 0 0 1 .3 1.29 3 3 0 0 1-3 3 2.81 2.81 0 0 1-1.29-.3 1.67 1.67 0 0 1-.21-.12 2.91 2.91 0 0 1-1.06-1.06 1.67 1.67 0 0 1-.12-.23 2.81 2.81 0 0 1-.3-1.29 3 3 0 0 1 2.98-3z"/><path class="cls-3" d="M22.79 2.19a1.67 1.67 0 0 1 .23.12 3 3 0 0 1 1.06 1.06 1.67 1.67 0 0 1 .12.23l-4 4a1.67 1.67 0 0 1-.2-.13 2.91 2.91 0 0 1-1.06-1.06 1.67 1.67 0 0 1-.12-.23zM9.76 9a2.27 2.27 0 0 0 1.6-.66L13.5 6.2l1.34-1.34a2.26 2.26 0 0 0-3.2-3.2L10.3 3 8.16 5.14a2.27 2.27 0 0 0-.66 1.6A2.25 2.25 0 0 0 9.76 9z"/><path class="cls-2" d="M9.76 9a2.27 2.27 0 0 0 1.6-.66L13.1 6.6 9.9 3.4 8.16 5.14a2.27 2.27 0 0 0-.66 1.6A2.25 2.25 0 0 0 9.76 9z"/><path class="cls-3" d="M26.5 15.74a2.27 2.27 0 0 0-.66-1.6L23.7 12l-1.34-1.34a2.26 2.26 0 0 0-3.2 3.2l1.34 1.34 2.14 2.14a2.27 2.27 0 0 0 1.6.66 2.25 2.25 0 0 0 2.26-2.26z"/><path class="cls-2" d="M26.5 15.74a2.27 2.27 0 0 0-.66-1.6L24.1 12.4l-3.2 3.2 1.74 1.74a2.27 2.27 0 0 0 1.6.66 2.25 2.25 0 0 0 2.26-2.26z"/></g></svg>