<?xml version="1.0" encoding="UTF-8"?>
<svg version="1.1" viewBox="0 0 2048 788" width="745" height="287" xmlns="http://www.w3.org/2000/svg">
<path transform="translate(220,333)" d="m0 0 4 1 11 20 16 25 12 16 7 11 10 11 7 8 12 12 8 7 16 13 17 12 20 12 8 5 3-1 1-2h2l2-4 31-31 11-9 13-11 18-13 21-13 14-8 15-6 16-4h18l2 2-1 4-8 8-8 6-12 11-14 14-7 8-11 12-9 11-10 13-10 15-13 24-1 5-12 33-4 19-2 20v28l3 26 6 23 10 26 14 30 2 5v7l-4 4-2 1-18 1h-41l-10-1-6-5-8-14-30-60-13-28-11-25-18-42-12-30-6-16-2-9-13-36-13-38-11-36-4-13-5-24-2-13v-15z" fill="#1A486B"/>
<path transform="translate(1413,579)" d="m0 0h19l12 3 10 6 7 10 1 2h2l7-8 10-7 10-4 9-2h20l12 3 10 6 8 9 5 10 3 16v102h-39l-1-10v-73l-1-14-5-10-4-3-13-2-11 2-6 4-6 10-1 4-1 25v66l-1 1h-38l-1-12v-60l-1-26-4-8-5-4-2-1-13-1-10 2-7 6-5 10-1 4-1 20v69l-1 1h-39l-1-143 1-1h38l1 1v17l10-11 14-7z" fill="#E43633"/>
<path transform="translate(778,532)" d="m0 0h62l21 3 14 5 12 9 8 9 6 12 4 16v18l-4 15-6 12-9 10-7 6-11 5-13 4-12 2-18 1h-30v66h-41v-192zm17 34v58h38l9-1 12-6 6-7 3-10v-12l-3-9-6-7-12-5-5-1z" fill="#E43633"/>
<path transform="translate(145,399)" d="m0 0h12l12 3 10 6 8 9 7 14 1 5v14l-4 12-6 9-8 8-16 8-27 10-36 13-28 12-16 4h-8l-12-3-10-6-7-8-6-10-3-7-1-5v-12l4-13 6-10 8-8 14-7 27-10 44-16 24-9z" fill="#1B486B"/>
<path transform="translate(545,75)" d="m0 0h14l14 5 9 7 8 11 4 11 1 9-2 13-6 12-13 15-22 22-1 2h-2l-2 4-16 16-9 12-12 12-11 7-10 4-4 1h-12l-10-3-11-7-8-8-5-11-2-11v-8l3-12 6-11 24-26 16-16 7-8 10-10 7-8 13-14 9-6z" fill="#1A486B"/>
<path transform="translate(172,73)" d="m0 0h8l12 3 11 7 18 18 7 8 12 13 7 8 12 13 16 17 9 12 4 10 1 4v15l-3 12-7 9-9 8-12 5-5 1h-14l-10-3-11-6-12-12-10-13-12-13-7-8-12-13-14-15-9-10-7-12-2-7v-16l4-11 6-10 7-6 10-5z" fill="#1B486B"/>
<path transform="translate(210,526)" d="m0 0h7l12 3 9 5 8 7 7 11 3 9 1 6v8l-3 12-5 9-11 12-21 21-8 7-10 9-22 22-12 9-11 4-14 1-13-3-10-6-9-9-7-14-1-5v-15l4-11 7-9 8-9 8-7 26-26 8-7 20-20 11-8 9-4z" fill="#E43633"/>
<path transform="translate(360,4)" d="m0 0h18l11 4 9 6 7 8 6 13 1 5v112l-4 14-7 11-8 7-8 4-8 2h-18l-11-4-9-7-7-10-4-11-1-9v-102l2-13 7-14 6-7 7-5z" fill="#E43633"/>
<path transform="translate(508,528)" d="m0 0h19l9 4 13 11 57 57 7 8 8 10 5 10 1 4v15l-3 10-7 11-8 7-10 5-7 2h-18l-11-4-9-7-13-13-9-7-43-43-11-14-5-13-1-6v-9l3-12 7-11 8-8 8-4z" fill="#E43633"/>
<path transform="translate(922,531)" d="m0 0h27l10 1 2 3 1 63 7-6 8-6 10-5 10-2h9l12 2 12 6 6 5 8 12 4 13 1 5v102l-3 1h-34l-1-1-1-92-4-10-5-5-5-2h-14l-8 4-7 8-4 11-1 6-1 79-2 2h-35l-1-1-1-19v-146l-1-27z" fill="#E43633"/>
<path transform="translate(570,403)" d="m0 0h13l20 6 54 17 26 9 12 7 6 5 7 12 2 7v17l-3 10-6 9-8 8-12 6-8 2h-14l-57-18-36-12-16-8-8-8-8-16-1-4v-13l3-10 6-10 7-7 8-5z" fill="#E43633"/>
<path transform="translate(67,225)" d="m0 0h16l11 4 25 12 21 11 23 11 24 13 9 9 5 10 3 14-1 11-4 12-7 9-9 7-10 4-5 1h-13l-10-3-30-15-17-8-16-8-19-10-12-6-10-9-5-8-3-9v-20l4-10 6-8 7-7 12-6z" fill="#E43633"/>
<path transform="translate(649,228)" d="m0 0h14l10 3 9 6 5 4 6 9 3 9v18l-4 13-7 9-10 7-31 14-18 8-32 15-20 8-6 1h-13l-11-3-11-6-6-7-6-12-1-3v-20l7-14 7-7 16-8 32-15 18-8 22-10 14-7z" fill="#E43633"/>
<path transform="translate(1132,579)" d="m0 0h23l16 3 12 5 10 7 6 8 4 10 1 5 1 88 4 15 1 5h-38l-3-9-1-8-8 7-7 6-12 5-14 2-17-1-13-4-10-6-8-9-5-12-1-7v-11l2-10 4-8 6-7 10-7 12-5 16-3 35-4 6-2v-13l-5-5-7-3h-18l-9 5h-2l-5 10-1 1h-35l-3-1v-7l4-11 7-11 8-7 14-7 13-3zm30 78-23 5-17 4-6 4-3 5v11l4 6 5 4 7 2h12l12-4 7-5 4-6 1-3 1-21-1-2z" fill="#E43633"/>
<path transform="translate(1642,579)" d="m0 0h23l16 3 12 5 8 6 7 8 4 8 2 14 1 79 2 14 3 9h-37l-3-6-2-11-5 5-9 8-12 5-13 2h-9l-15-2-12-5-9-7-6-8-4-13v-19l3-10 6-9 8-7 13-6 18-4 35-4 6-2v-13l-2-4-8-4h-19l-10 5-5 8-1 3h-37l-2-1 1-10 5-12 8-10 8-6 8-4 15-4zm29 78-16 4-20 4-8 4-4 5-1 3v7l4 8 6 4 7 2h11l13-4 8-7 3-7 1-23z" fill="#E43633"/>
<path transform="translate(1889,581)" d="m0 0h42l3 3 13 40 7 20 10 31v2h2l2-11 16-46 12-36 1-2 39-1 1 2-6 16-12 34-13 35-9 25-13 36-10 25-6 10-7 8-10 6-13 3h-35l-1-14v-18l1-1 24-1 9-4 5-7 1-3v-9l-14-39-10-26-19-49-10-25z" fill="#E43633"/>
<path transform="translate(770,359)" d="m0 0h53l14 2 10 4 9 6 6 8 4 10 1 9-3 12-6 8-7 6-4 1v2l9 3 8 6 4 6 2 6 1 14-2 13-5 9-7 7-14 7-10 2-15 1h-61l-2-1-1-7v-133zm16 25v32h29l11-2 6-5 3-8-2-8-6-7-7-2zm0 56v35h34l9-2 6-4 3-4 1-3v-9l-3-7-6-4-11-2z" fill="#E43633"/>
<path transform="translate(1801,579)" d="m0 0h25l14 3 12 5 9 7 8 8 8 16 3 13-1 1h-39l-7-13-5-4-11-4h-10l-11 4-7 6-5 8-3 13-1 7v10l3 16 6 10 8 7 10 3h11l11-4 7-8 4-9 1-4 5-1h29l5 1-3 16-5 13-7 10h-2v2l-10 7-10 5-15 4-11 1h-11l-17-2-13-5-11-7-8-7-7-10-5-11-5-16-1-12v-10l2-15 6-16 6-11 11-12 10-7 12-5z" fill="#E43633"/>
<path transform="translate(1730,359)" d="m0 0 30 1v140l-5 1h-24l-6-8-15-24-10-15-13-21-15-22v89l-1 1h-13l-16-1-1-140h31l7 10 15 23 12 19 10 15 10 16 2 3 1-12v-74z" fill="#E43936"/>
<path transform="translate(894,359)" d="m0 0h64l17 2 12 4 11 8 6 8 4 9 1 8v11l-2 11-6 10-9 8-10 5 2 5 26 44 3 5v4h-34l-3-3-15-28-12-21-1-1h-23l-1 53h-31v-141zm31 25-1 1v38h38l7-2 7-8 1-4v-9l-3-8-8-6-12-2z" fill="#E43633"/>
<path transform="translate(359,305)" d="m0 0h21l13 4 12 7 7 6 10 13 6 13 2 11v9l-2 11-8 16-8 10-8 7-14 7-10 3-7 1h-9l-11-2-13-5-11-8-9-11-5-10-4-12-1-5v-13l4-14 7-14 11-12 11-7 10-4z" fill="#1A486B"/>
<path transform="translate(1829,359)" d="m0 0h42l18 1 14 3 10 5 10 9 6 10 2 9v20l-3 10-6 8-7 6-9 4h-2l13 21 13 22 6 12v2h-35l-13-23-14-27-24-1v51h-26l-4-1v-140zm22 27-1 1v38h33l9-3 6-7 1-4v-11l-4-8-7-4-16-2z" fill="#1C486B"/>
<path transform="translate(1145,357)" d="m0 0h9l15 2 13 5 13 10 8 10 6 12 2 9h-32l-7-13-9-6-4-1h-18l-10 5-8 9-5 11-2 9v22l3 13 5 9 5 6 8 4 7 2h14l9-3 9-8 4-9 2-8h-29l-1-1v-23h59v77l-1 1h-21l-2-1-2-12v-2l-8 7-9 6-11 3h-23l-13-4-9-5-10-8-7-10-7-14-4-14-1-6v-22l3-15 5-12 9-14 11-10 10-6 13-4z" fill="#E43633"/>
<path transform="translate(1547,357)" d="m0 0h13l13 2 14 5 11 8 7 7 9 14 6 15 2 11v20l-3 16-8 16-6 9-7 8-14 9-13 4-5 1h-24l-16-4-11-6-11-9-7-10-7-14-4-15-1-9v-13l3-16 5-12 6-11 9-10 12-9 13-5zm-1 27-11 4-9 8-7 14-3 14v11l4 17 6 11 7 7 10 4 5 1h13l10-3 8-6 7-10 4-13v-25l-4-13-5-9-5-5-5-4-9-3z" fill="#E43633"/>
<path transform="translate(1236,359)" d="m0 0 30 1v54h55v-55h31l1 1v140l-4 1h-27l-1-1v-61l-54 1-1 61h-30z" fill="#E43633"/>
<path transform="translate(1303,579)" d="m0 0h15l7 1v36h-17l-13 3-8 6-6 7-4 10-1 24v58l-1 1h-38l-1-1v-70l1-72 10-1 27 1v19l3-3 6-9 7-6z" fill="#E43633"/>
<path transform="translate(77,423)" d="m0 0h3l8 21 13 36 8 24v2l-20 8-19 8-16 4h-8l-12-3-10-6-7-8-6-10-3-7-1-5v-12l4-13 6-10 8-8 14-7 27-10z" fill="#E43633"/>
<path transform="translate(508,528)" d="m0 0h19l9 4 13 11 29 29-1 3-8 7-13 13-8 7-11 11-8 7-13 12-4-1-23-23-11-14-5-13-1-6v-9l3-12 7-11 8-8 8-4z" fill="#1A486B"/>
<path transform="translate(545,75)" d="m0 0h14l14 5 9 7 8 11 4 11 1 9-2 13-6 12-13 15-22 22-5-3-14-14-8-7-26-26-10-8 6-7 8-8 7-8 13-14 9-6z" fill="#E43633"/>
<path transform="translate(172,73)" d="m0 0h8l12 3 11 7 18 18 7 8 10 11-6 7-15 14-13 12-11 10-11 9-7 6-14-14-7-8-8-8-9-13-4-11v-16l4-11 6-10 7-6 10-5z" fill="#E43633"/>
<path transform="translate(210,526)" d="m0 0h7l12 3 9 5 8 7 7 11 3 9 1 6v8l-3 12-5 9-11 12-21 21-3 1-14-12-8-8-7-8-17-17-7-8-8-8v-2l8-7 20-20 11-8 9-4z" fill="#1B486B"/>
<path transform="translate(570,403)" d="m0 0h13l20 6 28 9-3 12-16 47-7 19-2 3-8-1-32-11-13-7-8-8-8-16-1-4v-13l3-10 6-10 7-7 8-5z" fill="#1A476B"/>
<path transform="translate(1369,359)" d="m0 0h102l10 1v25l-1 1-39 1-1 113-1 1h-27l-3-1-1-113-40-1v-26z" fill="#E43633"/>
<path transform="translate(403,103)" d="m0 0h8l1 1v48l-4 14-7 11-8 7-8 4-8 2h-18l-11-4-9-7-7-10-4-11-1-9v-44l1-1z" fill="#1A486B"/>
<path transform="translate(582,257)" d="m0 0h5l5 7 16 36 13 28-1 3-35 16-11 4-6 1h-13l-11-3-11-6-6-7-6-12-1-3v-20l7-14 7-7 16-8z" fill="#1A486B"/>
<path transform="translate(145,255)" d="m0 0 6 2 22 11 14 8 9 9 5 10 3 14-1 11-4 12-7 9-9 7-10 4-5 1h-13l-10-3-30-15-5-2 1-6 8-19 18-39 6-12z" fill="#1A486B"/>
<path transform="translate(1941,405)" d="m0 0 32 1 12 19 3 6v2h2l2-6 11-20 4-2h29l-1 4-11 16-14 21-3 5 1 4 14 22 14 20 1 4h-31l-7-10-11-18-13 23-3 5h-31l1-5 9-13 14-20 6-9-1-5-13-18-9-13-7-10z" fill="#1D486C"/>
<path transform="translate(1034,359)" d="m0 0 31 1v140l-4 1-28-1v-140z" fill="#E43734"/>
<path transform="translate(4,389)" d="m0 0 3 1-2 2h-5l1-2z" fill="#48435E"/>
<path transform="translate(655,340)" d="m0 0h2v2l-3-1z" fill="#1A486C"/>
<path transform="translate(636,514)" d="m0 0" fill="#FEFEFE"/>
<path transform="translate(7,389)" d="m0 0" fill="#E43633"/>
</svg>
