<?xml version="1.0" encoding="UTF-8"?>
<svg version="1.1" viewBox="0 0 2048 869" width="674" height="286" xmlns="http://www.w3.org/2000/svg">
<path transform="translate(270,84)" d="m0 0h17l20 3 22 6 18 8 14 8 12 9 13 12 10 11 9 13 8 14 8 18 6 20 3 22 1 20v168l1 1h32l5-11 13-36 10-28 4-6 6-5 2-1h11l8 6 3 8 12 44 7 29 4 15 3-17 4-27 12-77 14-92 6-35 7-8 4-2h11l6 4 4 5 3 9 10 83 15 120 15 117 2 12v12h2l2-19 9-48 8-40 7-8 4-2 7-1h1236l6 3 7 8 1 4v8l-4 8-9 6-458 1h-180l-585-1-5 28-4 23-6 34-7 41-7 37-6 38-4 11-7 6-5 2h-7l-8-4-6-8-2-8-7-56-9-70-7-60-5-38-13-102-1-1-2 14-6 36-6 42-9 53-5 32-4 21-4 7-8 4h-9l-8-3-6-9-4-13-10-40-7-30-7-27v-5l-2 1-9 27-5 10-8 6-2 1-34 1h-16v170l-3 27-6 22-8 19-8 15-9 12-12 14-12 11-14 10-20 11-21 7-21 5-12 1h-15l-18-2-19-5-21-8-14-8-16-12-15-14-11-14-10-15-11-23-6-20-3-16-1-17v-383l1-22 5-23 6-17 10-21 10-14 9-11 13-13 13-10 14-9 17-8 19-6 20-4z" fill="#175a81"/>
<path transform="translate(599,174)" d="m0 0h11l6 4 4 5 3 9 10 83 15 120 15 117 2 12v12h2l2-19 9-48 8-40 7-8 4-2 7-1h1236l6 3 7 8 1 4v8l-4 8-9 6-458 1h-180l-585-1-5 28-4 23-6 34-7 41-7 37-6 38-4 11-7 6-5 2h-7l-8-4-6-8-2-8-7-56-9-70-7-60-5-38-13-102-1-1-2 14-6 36-6 42-9 53-5 32-4 21-4 7-8 4h-9l-8-3-6-9-4-13-10-40-7-30-7-27v-5l-2 1-9 27-5 10-8 6-2 1-34 1-135-1h-184l-2-1v-32l1-4 337-1 5-11 13-36 10-28 4-6 6-5 2-1h11l8 6 3 8 12 44 7 29 4 15 3-17 4-27 12-77 14-92 6-35 7-8z" fill="#f74d4d"/>
<path transform="translate(796,499)" d="m0 0h87l18 2 21 5 18 7 13 8 11 9 9 9 9 13 8 16 5 16 3 13 1 6v29l-3 16-6 18-5 12-10 14-9 10-8 8-14 9-19 9-12 4-22 3-22 1h-97l-1-1v-234l1-1z m31 49h62l16 5 11 6 12 12 6 9 5 14 3 13v18l-5 21-7 13-8 10-12 9-12 5-17 2h-53l-1-3z" fill="#175a81" fill-rule="evenodd"/>
<path transform="translate(1042,499)" d="m0 0h106l17 2 15 4 17 7 12 8 9 9 9 14 6 15 3 14v25l-4 17-6 14-9 12-10 9-13 8 1 5 10 15 11 17 13 20 13 19v2l-23 1h-37l-5-5-12-19-14-22-10-16-2-5h-47v66l-2 1h-49l-6-1-1-30v-190l1-15z m81 48 27 1 13 5 6 5 7 11 2 7 1 10-3 13-6 9-9 8-11 4-8 1h-50l-1-2v-70l1-1z" fill="#175a81" fill-rule="evenodd"/>
<path transform="translate(740,158)" d="m0 0h46l3 5 11 42 10 36 8 30 7 25v2h2l1-10 12-43 9-34 10-36 4-16 2-1h43l3 7 14 56 8 28 6 24 7 26 2-4 4-17 11-40 7-24 8-29 7-26 2-1h44l-2 11-10 35-9 31-8 30-8 27-10 36-8 28-3 12-3 3h-44l-3-1-7-23-10-36-11-39-7-26-2-10h-2l-1 8-12 42-7 26-9 32-7 26h-48l-6-17-7-25-18-64-7-24-14-50-8-29z" fill="#175a81"/>
<path transform="translate(1627,496)" d="m0 0h31l25 5 16 6 13 7 12 9 12 12-1 4-33 33-3-1-5-5-8-7-16-8-10-3-11-2h-17l-16 4-14 7-12 11-6 9-6 12-4 15-1 8v10l2 11 3 10 6 14 8 11 9 8 10 6 15 5 5 1h20l10-2 16-5 2-3 1-65h53l1 39v42l-1 15-9 7-16 9-16 7-21 5-26 3-21-1-19-3-16-5-16-8-12-8-12-11-9-10-9-14-7-14-5-15-3-13-1-8v-24l5-26 6-16 9-16 13-16 13-12 16-10 25-10z" fill="#175a81"/>
<path transform="translate(1280,499)" d="m0 0h26l23 1 1 136 2 16 4 12 5 9 7 7 8 4 8 3 6 1h15l8-2 12-5 8-7 6-10 5-18 1-145 1-1h55v143l-2 18-5 19-6 14-10 14-9 9-16 10-10 5-23 6-7 1h-31l-18-3-15-5-15-8-10-8-8-7-10-15-8-18-4-17-2-21v-28l1-109z" fill="#175a81"/>
<path transform="translate(1848,496)" d="m0 0h33l25 4 22 8 14 7 2 2-1 7-10 25-6 12-17-8-15-5-12-3-7-1h-25l-9 2-9 4-6 5-3 7v8l4 8 7 5 16 5 40 10 23 8 14 7 11 9 6 8 7 14 2 9v22l-3 14-8 16-7 8-8 7-15 9-11 4-21 5-7 1h-34l-21-3-19-5-17-7-19-11-2-2 1-5 9-20 7-15 2-4 5 1 10 7 21 9 14 4 9 2h32l13-4 8-6 4-7v-7l-3-6-5-5-14-7-43-11-18-6-18-8-12-9-7-7-8-14-3-10v-25l4-13 7-13 9-11 13-10 14-7 15-5z" fill="#175a81"/>
<path transform="translate(1398,158)" d="m0 0h38l4 5 8 12 14 20 17 25 10 14 14 20 12 18 3 4v2h2v-120h44l1 1v211l-1 1h-36l-12-16-17-25-13-18-9-13-13-19-16-23-5-7-1 1v114l-1 6h-43l-1-1v-211z" fill="#175a81"/>
<path transform="translate(1095,158)" d="m0 0h45l3 5 25 65 11 30 10 26 12 31 10 26 6 15 5 13v2h-47l-6-12-10-28-2-3h-80l-2 6-11 32-3 4-9 1h-37l3-11 14-37 20-52 13-34 8-21 16-43 5-14z m21 56 3 1 7 21 12 34 5 13-1 4h-50l1-4 12-36z" fill="#175a81" fill-rule="evenodd"/>
<path transform="translate(1603,158)" d="m0 0h138v41l-1 1-92 1v40l81 1 1 2v38l-1 1-81 1v45h96v41l-1 1h-141v-212z" fill="#175a81"/>
<path transform="translate(1770,158)" d="m0 0h64l15 2 12 5 11 8 6 7 5 10 2 7v21l-4 12-8 11-9 7-4 1 5 9 8 11 10 15 11 16 3 3 1-5 20-30h33l-2 5-7 11-11 15-13 19-4 5 1 4 11 15 13 19 12 17 3 3v3l-31 1-5-3-10-14-11-18h-3l-16 23-7 11h-34l2-4 16-23 9-13 10-15 1-5-13-19-13-18-20-30h-27l-1 37h-32v-135z m32 27h30l9 2 8 6 3 6 1 13-3 8-7 6-8 3-16 1h-17l-1-1v-43z" fill="#175a81" fill-rule="evenodd"/>
<path transform="translate(1195,158)" d="m0 0h48l12 21 12 23 9 16 10 20 3 5v2h2l2-6 16-30 12-22 12-23 4-6h46l-2 6-14 27-34 64-8 16-12 23-1 76-3 1h-42l-1-1-1-77-12-23-12-22-12-23-12-22-8-15-8-16-7-13z" fill="#175a81"/>
<path transform="translate(255,151)" d="m0 0h14l5 5v10l-5 5-21 7-11 7-8 7-9 14-5 12-2 12-1 51-4 5-8 2-6-2-3-5-1-4v-47l4-22 9-19 10-13 10-9 14-9 12-5z" fill="#FEFEFE"/>
<path transform="translate(348,585)" d="m0 0h8l5 5 2 3v30l-3 20-4 12-6 12-10 13-9 9-13 8-11 5-13 3-9-1-5-6v-9l6-6 14-3 14-7 10-9 8-11 4-9 3-12 1-10 1-31 5-5z" fill="#FEFEFE"/>
</svg>
